<?xml version="1.0" encoding="utf-8" standalone="no"?>
<!DOCTYPE svg PUBLIC "-//W3C//DTD SVG 1.1//EN"
  "http://www.w3.org/Graphics/SVG/1.1/DTD/svg11.dtd">
<svg xmlns:xlink="http://www.w3.org/1999/xlink" width="460.8pt" height="345.6pt" viewBox="0 0 460.8 345.6" xmlns="http://www.w3.org/2000/svg" version="1.1">
 <metadata>
  <rdf:RDF xmlns:dc="http://purl.org/dc/elements/1.1/" xmlns:cc="http://creativecommons.org/ns#" xmlns:rdf="http://www.w3.org/1999/02/22-rdf-syntax-ns#">
   <cc:Work>
    <dc:type rdf:resource="http://purl.org/dc/dcmitype/StillImage"/>
    <dc:date>2026-05-17T17:44:33.687820</dc:date>
    <dc:format>image/svg+xml</dc:format>
    <dc:creator>
     <cc:Agent>
      <dc:title>Matplotlib v3.10.9, https://matplotlib.org/</dc:title>
     </cc:Agent>
    </dc:creator>
   </cc:Work>
  </rdf:RDF>
 </metadata>
 <defs>
  <style type="text/css">*{stroke-linejoin: round; stroke-linecap: butt}</style>
 </defs>
 <g id="figure_1">
  <g id="patch_1">
   <path d="M 0 345.6 
L 460.8 345.6 
L 460.8 0 
L 0 0 
z
" style="fill: #ffffff"/>
  </g>
  <g id="axes_1">
   <g id="patch_2">
    <path d="M 57.6 307.584 
L 414.72 307.584 
L 414.72 41.472 
L 57.6 41.472 
z
" style="fill: #ffffff"/>
   </g>
   <g id="matplotlib.axis_1">
    <g id="xtick_1">
     <g id="line2d_1">
      <defs>
       <path id="m153b2152f7" d="M 0 0 
L 0 3.5 
" style="stroke: #000000; stroke-width: 0.8"/>
      </defs>
      <g>
       <use xlink:href="#m153b2152f7" x="88.058592" y="307.584" style="stroke: #000000; stroke-width: 0.8"/>
      </g>
     </g>
     <g id="text_1">
      <!-- −100 -->
      <g transform="translate(74.324998 322.182437) scale(0.1 -0.1)">
       <defs>
        <path id="DejaVuSans-2212" d="M 678 2272 
L 4684 2272 
L 4684 1741 
L 678 1741 
L 678 2272 
z
" transform="scale(0.015625)"/>
        <path id="DejaVuSans-31" d="M 794 531 
L 1825 531 
L 1825 4091 
L 703 3866 
L 703 4441 
L 1819 4666 
L 2450 4666 
L 2450 531 
L 3481 531 
L 3481 0 
L 794 0 
L 794 531 
z
" transform="scale(0.015625)"/>
        <path id="DejaVuSans-30" d="M 2034 4250 
Q 1547 4250 1301 3770 
Q 1056 3291 1056 2328 
Q 1056 1369 1301 889 
Q 1547 409 2034 409 
Q 2525 409 2770 889 
Q 3016 1369 3016 2328 
Q 3016 3291 2770 3770 
Q 2525 4250 2034 4250 
z
M 2034 4750 
Q 2819 4750 3233 4129 
Q 3647 3509 3647 2328 
Q 3647 1150 3233 529 
Q 2819 -91 2034 -91 
Q 1250 -91 836 529 
Q 422 1150 422 2328 
Q 422 3509 836 4129 
Q 1250 4750 2034 4750 
z
" transform="scale(0.015625)"/>
       </defs>
       <use xlink:href="#DejaVuSans-2212"/>
       <use xlink:href="#DejaVuSans-31" transform="translate(83.789062 0)"/>
       <use xlink:href="#DejaVuSans-30" transform="translate(147.412109 0)"/>
       <use xlink:href="#DejaVuSans-30" transform="translate(211.035156 0)"/>
      </g>
     </g>
    </g>
    <g id="xtick_2">
     <g id="line2d_2">
      <g>
       <use xlink:href="#m153b2152f7" x="138.86525" y="307.584" style="stroke: #000000; stroke-width: 0.8"/>
      </g>
     </g>
     <g id="text_2">
      <!-- 0 -->
      <g transform="translate(135.684 322.182437) scale(0.1 -0.1)">
       <use xlink:href="#DejaVuSans-30"/>
      </g>
     </g>
    </g>
    <g id="xtick_3">
     <g id="line2d_3">
      <g>
       <use xlink:href="#m153b2152f7" x="189.671908" y="307.584" style="stroke: #000000; stroke-width: 0.8"/>
      </g>
     </g>
     <g id="text_3">
      <!-- 100 -->
      <g transform="translate(180.128158 322.182437) scale(0.1 -0.1)">
       <use xlink:href="#DejaVuSans-31"/>
       <use xlink:href="#DejaVuSans-30" transform="translate(63.623047 0)"/>
       <use xlink:href="#DejaVuSans-30" transform="translate(127.246094 0)"/>
      </g>
     </g>
    </g>
    <g id="xtick_4">
     <g id="line2d_4">
      <g>
       <use xlink:href="#m153b2152f7" x="240.478566" y="307.584" style="stroke: #000000; stroke-width: 0.8"/>
      </g>
     </g>
     <g id="text_4">
      <!-- 200 -->
      <g transform="translate(230.934816 322.182437) scale(0.1 -0.1)">
       <defs>
        <path id="DejaVuSans-32" d="M 1228 531 
L 3431 531 
L 3431 0 
L 469 0 
L 469 531 
Q 828 903 1448 1529 
Q 2069 2156 2228 2338 
Q 2531 2678 2651 2914 
Q 2772 3150 2772 3378 
Q 2772 3750 2511 3984 
Q 2250 4219 1831 4219 
Q 1534 4219 1204 4116 
Q 875 4013 500 3803 
L 500 4441 
Q 881 4594 1212 4672 
Q 1544 4750 1819 4750 
Q 2544 4750 2975 4387 
Q 3406 4025 3406 3419 
Q 3406 3131 3298 2873 
Q 3191 2616 2906 2266 
Q 2828 2175 2409 1742 
Q 1991 1309 1228 531 
z
" transform="scale(0.015625)"/>
       </defs>
       <use xlink:href="#DejaVuSans-32"/>
       <use xlink:href="#DejaVuSans-30" transform="translate(63.623047 0)"/>
       <use xlink:href="#DejaVuSans-30" transform="translate(127.246094 0)"/>
      </g>
     </g>
    </g>
    <g id="xtick_5">
     <g id="line2d_5">
      <g>
       <use xlink:href="#m153b2152f7" x="291.285224" y="307.584" style="stroke: #000000; stroke-width: 0.8"/>
      </g>
     </g>
     <g id="text_5">
      <!-- 300 -->
      <g transform="translate(281.741474 322.182437) scale(0.1 -0.1)">
       <defs>
        <path id="DejaVuSans-33" d="M 2597 2516 
Q 3050 2419 3304 2112 
Q 3559 1806 3559 1356 
Q 3559 666 3084 287 
Q 2609 -91 1734 -91 
Q 1441 -91 1130 -33 
Q 819 25 488 141 
L 488 750 
Q 750 597 1062 519 
Q 1375 441 1716 441 
Q 2309 441 2620 675 
Q 2931 909 2931 1356 
Q 2931 1769 2642 2001 
Q 2353 2234 1838 2234 
L 1294 2234 
L 1294 2753 
L 1863 2753 
Q 2328 2753 2575 2939 
Q 2822 3125 2822 3475 
Q 2822 3834 2567 4026 
Q 2313 4219 1838 4219 
Q 1578 4219 1281 4162 
Q 984 4106 628 3988 
L 628 4550 
Q 988 4650 1302 4700 
Q 1616 4750 1894 4750 
Q 2613 4750 3031 4423 
Q 3450 4097 3450 3541 
Q 3450 3153 3228 2886 
Q 3006 2619 2597 2516 
z
" transform="scale(0.015625)"/>
       </defs>
       <use xlink:href="#DejaVuSans-33"/>
       <use xlink:href="#DejaVuSans-30" transform="translate(63.623047 0)"/>
       <use xlink:href="#DejaVuSans-30" transform="translate(127.246094 0)"/>
      </g>
     </g>
    </g>
    <g id="xtick_6">
     <g id="line2d_6">
      <g>
       <use xlink:href="#m153b2152f7" x="342.091882" y="307.584" style="stroke: #000000; stroke-width: 0.8"/>
      </g>
     </g>
     <g id="text_6">
      <!-- 400 -->
      <g transform="translate(332.548132 322.182437) scale(0.1 -0.1)">
       <defs>
        <path id="DejaVuSans-34" d="M 2419 4116 
L 825 1625 
L 2419 1625 
L 2419 4116 
z
M 2253 4666 
L 3047 4666 
L 3047 1625 
L 3713 1625 
L 3713 1100 
L 3047 1100 
L 3047 0 
L 2419 0 
L 2419 1100 
L 313 1100 
L 313 1709 
L 2253 4666 
z
" transform="scale(0.015625)"/>
       </defs>
       <use xlink:href="#DejaVuSans-34"/>
       <use xlink:href="#DejaVuSans-30" transform="translate(63.623047 0)"/>
       <use xlink:href="#DejaVuSans-30" transform="translate(127.246094 0)"/>
      </g>
     </g>
    </g>
    <g id="xtick_7">
     <g id="line2d_7">
      <g>
       <use xlink:href="#m153b2152f7" x="392.89854" y="307.584" style="stroke: #000000; stroke-width: 0.8"/>
      </g>
     </g>
     <g id="text_7">
      <!-- 500 -->
      <g transform="translate(383.35479 322.182437) scale(0.1 -0.1)">
       <defs>
        <path id="DejaVuSans-35" d="M 691 4666 
L 3169 4666 
L 3169 4134 
L 1269 4134 
L 1269 2991 
Q 1406 3038 1543 3061 
Q 1681 3084 1819 3084 
Q 2600 3084 3056 2656 
Q 3513 2228 3513 1497 
Q 3513 744 3044 326 
Q 2575 -91 1722 -91 
Q 1428 -91 1123 -41 
Q 819 9 494 109 
L 494 744 
Q 775 591 1075 516 
Q 1375 441 1709 441 
Q 2250 441 2565 725 
Q 2881 1009 2881 1497 
Q 2881 1984 2565 2268 
Q 2250 2553 1709 2553 
Q 1456 2553 1204 2497 
Q 953 2441 691 2322 
L 691 4666 
z
" transform="scale(0.015625)"/>
       </defs>
       <use xlink:href="#DejaVuSans-35"/>
       <use xlink:href="#DejaVuSans-30" transform="translate(63.623047 0)"/>
       <use xlink:href="#DejaVuSans-30" transform="translate(127.246094 0)"/>
      </g>
     </g>
    </g>
   </g>
   <g id="matplotlib.axis_2">
    <g id="ytick_1">
     <g id="line2d_8">
      <defs>
       <path id="m253b2caf44" d="M 0 0 
L -3.5 0 
" style="stroke: #000000; stroke-width: 0.8"/>
      </defs>
      <g>
       <use xlink:href="#m253b2caf44" x="57.6" y="295.488" style="stroke: #000000; stroke-width: 0.8"/>
      </g>
     </g>
     <g id="text_8">
      <!-- −1.00 -->
      <g transform="translate(19.954687 299.287219) scale(0.1 -0.1)">
       <defs>
        <path id="DejaVuSans-2e" d="M 684 794 
L 1344 794 
L 1344 0 
L 684 0 
L 684 794 
z
" transform="scale(0.015625)"/>
       </defs>
       <use xlink:href="#DejaVuSans-2212"/>
       <use xlink:href="#DejaVuSans-31" transform="translate(83.789062 0)"/>
       <use xlink:href="#DejaVuSans-2e" transform="translate(147.412109 0)"/>
       <use xlink:href="#DejaVuSans-30" transform="translate(179.199219 0)"/>
       <use xlink:href="#DejaVuSans-30" transform="translate(242.822266 0)"/>
      </g>
     </g>
    </g>
    <g id="ytick_2">
     <g id="line2d_9">
      <g>
       <use xlink:href="#m253b2caf44" x="57.6" y="265.248" style="stroke: #000000; stroke-width: 0.8"/>
      </g>
     </g>
     <g id="text_9">
      <!-- −0.75 -->
      <g transform="translate(19.954687 269.047219) scale(0.1 -0.1)">
       <defs>
        <path id="DejaVuSans-37" d="M 525 4666 
L 3525 4666 
L 3525 4397 
L 1831 0 
L 1172 0 
L 2766 4134 
L 525 4134 
L 525 4666 
z
" transform="scale(0.015625)"/>
       </defs>
       <use xlink:href="#DejaVuSans-2212"/>
       <use xlink:href="#DejaVuSans-30" transform="translate(83.789062 0)"/>
       <use xlink:href="#DejaVuSans-2e" transform="translate(147.412109 0)"/>
       <use xlink:href="#DejaVuSans-37" transform="translate(179.199219 0)"/>
       <use xlink:href="#DejaVuSans-35" transform="translate(242.822266 0)"/>
      </g>
     </g>
    </g>
    <g id="ytick_3">
     <g id="line2d_10">
      <g>
       <use xlink:href="#m253b2caf44" x="57.6" y="235.008" style="stroke: #000000; stroke-width: 0.8"/>
      </g>
     </g>
     <g id="text_10">
      <!-- −0.50 -->
      <g transform="translate(19.954687 238.807219) scale(0.1 -0.1)">
       <use xlink:href="#DejaVuSans-2212"/>
       <use xlink:href="#DejaVuSans-30" transform="translate(83.789062 0)"/>
       <use xlink:href="#DejaVuSans-2e" transform="translate(147.412109 0)"/>
       <use xlink:href="#DejaVuSans-35" transform="translate(179.199219 0)"/>
       <use xlink:href="#DejaVuSans-30" transform="translate(242.822266 0)"/>
      </g>
     </g>
    </g>
    <g id="ytick_4">
     <g id="line2d_11">
      <g>
       <use xlink:href="#m253b2caf44" x="57.6" y="204.768" style="stroke: #000000; stroke-width: 0.8"/>
      </g>
     </g>
     <g id="text_11">
      <!-- −0.25 -->
      <g transform="translate(19.954687 208.567219) scale(0.1 -0.1)">
       <use xlink:href="#DejaVuSans-2212"/>
       <use xlink:href="#DejaVuSans-30" transform="translate(83.789062 0)"/>
       <use xlink:href="#DejaVuSans-2e" transform="translate(147.412109 0)"/>
       <use xlink:href="#DejaVuSans-32" transform="translate(179.199219 0)"/>
       <use xlink:href="#DejaVuSans-35" transform="translate(242.822266 0)"/>
      </g>
     </g>
    </g>
    <g id="ytick_5">
     <g id="line2d_12">
      <g>
       <use xlink:href="#m253b2caf44" x="57.6" y="174.528" style="stroke: #000000; stroke-width: 0.8"/>
      </g>
     </g>
     <g id="text_12">
      <!-- 0.00 -->
      <g transform="translate(28.334375 178.327219) scale(0.1 -0.1)">
       <use xlink:href="#DejaVuSans-30"/>
       <use xlink:href="#DejaVuSans-2e" transform="translate(63.623047 0)"/>
       <use xlink:href="#DejaVuSans-30" transform="translate(95.410156 0)"/>
       <use xlink:href="#DejaVuSans-30" transform="translate(159.033203 0)"/>
      </g>
     </g>
    </g>
    <g id="ytick_6">
     <g id="line2d_13">
      <g>
       <use xlink:href="#m253b2caf44" x="57.6" y="144.288" style="stroke: #000000; stroke-width: 0.8"/>
      </g>
     </g>
     <g id="text_13">
      <!-- 0.25 -->
      <g transform="translate(28.334375 148.087219) scale(0.1 -0.1)">
       <use xlink:href="#DejaVuSans-30"/>
       <use xlink:href="#DejaVuSans-2e" transform="translate(63.623047 0)"/>
       <use xlink:href="#DejaVuSans-32" transform="translate(95.410156 0)"/>
       <use xlink:href="#DejaVuSans-35" transform="translate(159.033203 0)"/>
      </g>
     </g>
    </g>
    <g id="ytick_7">
     <g id="line2d_14">
      <g>
       <use xlink:href="#m253b2caf44" x="57.6" y="114.048" style="stroke: #000000; stroke-width: 0.8"/>
      </g>
     </g>
     <g id="text_14">
      <!-- 0.50 -->
      <g transform="translate(28.334375 117.847219) scale(0.1 -0.1)">
       <use xlink:href="#DejaVuSans-30"/>
       <use xlink:href="#DejaVuSans-2e" transform="translate(63.623047 0)"/>
       <use xlink:href="#DejaVuSans-35" transform="translate(95.410156 0)"/>
       <use xlink:href="#DejaVuSans-30" transform="translate(159.033203 0)"/>
      </g>
     </g>
    </g>
    <g id="ytick_8">
     <g id="line2d_15">
      <g>
       <use xlink:href="#m253b2caf44" x="57.6" y="83.808" style="stroke: #000000; stroke-width: 0.8"/>
      </g>
     </g>
     <g id="text_15">
      <!-- 0.75 -->
      <g transform="translate(28.334375 87.607219) scale(0.1 -0.1)">
       <use xlink:href="#DejaVuSans-30"/>
       <use xlink:href="#DejaVuSans-2e" transform="translate(63.623047 0)"/>
       <use xlink:href="#DejaVuSans-37" transform="translate(95.410156 0)"/>
       <use xlink:href="#DejaVuSans-35" transform="translate(159.033203 0)"/>
      </g>
     </g>
    </g>
    <g id="ytick_9">
     <g id="line2d_16">
      <g>
       <use xlink:href="#m253b2caf44" x="57.6" y="53.568" style="stroke: #000000; stroke-width: 0.8"/>
      </g>
     </g>
     <g id="text_16">
      <!-- 1.00 -->
      <g transform="translate(28.334375 57.367219) scale(0.1 -0.1)">
       <use xlink:href="#DejaVuSans-31"/>
       <use xlink:href="#DejaVuSans-2e" transform="translate(63.623047 0)"/>
       <use xlink:href="#DejaVuSans-30" transform="translate(95.410156 0)"/>
       <use xlink:href="#DejaVuSans-30" transform="translate(159.033203 0)"/>
      </g>
     </g>
    </g>
   </g>
   <g id="line2d_17">
    <path d="M 73.832727 291.168 
L 74.340794 290.808 
L 74.84886 283.248 
L 75.356927 286.488 
L 75.864994 281.088 
L 76.881127 285.768 
L 77.389193 281.448 
L 77.89726 280.728 
L 78.405327 281.088 
L 78.913393 284.328 
L 79.42146 285.768 
L 79.929526 287.928 
L 80.437593 285.408 
L 80.945659 293.328 
L 81.453726 288.288 
L 81.961793 289.008 
L 82.469859 292.968 
L 82.977926 283.608 
L 83.485992 287.928 
L 83.994059 290.448 
L 84.502125 283.608 
L 85.010192 281.448 
L 85.518259 289.008 
L 86.026325 286.128 
L 86.534392 290.808 
L 87.042458 290.448 
L 87.550525 284.328 
L 88.058592 285.768 
L 88.566658 290.808 
L 89.074725 283.608 
L 89.582791 283.608 
L 90.090858 278.568 
L 90.598924 271.728 
L 91.106991 285.768 
L 91.615058 290.808 
L 92.123124 281.088 
L 92.631191 281.088 
L 93.139257 290.448 
L 93.647324 290.808 
L 94.155391 290.448 
L 94.663457 286.128 
L 95.171524 286.128 
L 95.67959 285.408 
L 96.187657 295.488 
L 96.695723 286.128 
L 97.20379 287.928 
L 97.711857 283.248 
L 98.219923 283.608 
L 99.236056 287.928 
L 99.744123 288.648 
L 100.25219 288.288 
L 100.760256 275.688 
L 101.268323 285.408 
L 101.776389 281.448 
L 102.284456 281.088 
L 102.792522 283.608 
L 103.300589 290.808 
L 103.808656 283.248 
L 104.316722 285.768 
L 104.824789 290.808 
L 105.332855 278.568 
L 105.840922 290.808 
L 106.348988 280.728 
L 106.857055 278.928 
L 107.365122 290.808 
L 107.873188 278.568 
L 108.381255 286.128 
L 108.889321 290.808 
L 109.397388 290.808 
L 109.905455 290.448 
L 110.413521 286.128 
L 110.921588 284.328 
L 111.429654 290.448 
L 111.937721 290.808 
L 112.445787 286.128 
L 112.953854 290.448 
L 113.461921 280.728 
L 113.969987 292.968 
L 114.98612 283.968 
L 115.494187 290.448 
L 116.002254 290.808 
L 116.51032 282.888 
L 117.018387 285.768 
L 117.526453 287.928 
L 118.03452 280.728 
L 118.542586 293.328 
L 119.050653 283.248 
L 119.55872 288.648 
L 120.066786 285.408 
L 120.574853 287.928 
L 121.082919 286.128 
L 121.590986 281.088 
L 122.099052 287.928 
L 122.607119 285.768 
L 123.115186 290.808 
L 123.623252 288.288 
L 124.131319 288.288 
L 124.639385 275.328 
L 125.147452 285.768 
L 125.655519 278.568 
L 126.163585 283.608 
L 126.671652 290.808 
L 127.179718 288.648 
L 127.687785 288.648 
L 128.195851 283.248 
L 128.703918 283.248 
L 129.211985 292.968 
L 129.720051 286.128 
L 130.228118 285.768 
L 130.736184 281.448 
L 131.244251 282.888 
L 131.752318 287.928 
L 132.260384 271.728 
L 132.768451 288.288 
L 133.784584 283.608 
L 134.800717 292.968 
L 135.308784 286.128 
L 135.81685 288.288 
L 136.324917 281.088 
L 136.832983 282.888 
L 137.34105 288.648 
L 137.849117 280.728 
L 138.357183 276.408 
L 139.373316 280.368 
L 139.881383 288.288 
L 140.897516 283.608 
L 141.405583 292.968 
L 141.913649 285.408 
L 142.421716 285.408 
L 142.929782 288.288 
L 143.437849 285.768 
L 143.945915 291.168 
L 144.453982 283.608 
L 145.470115 288.288 
L 145.978182 287.928 
L 146.486248 290.808 
L 146.994315 288.288 
L 147.502382 278.208 
L 148.010448 288.288 
L 148.518515 287.928 
L 149.026581 280.728 
L 149.534648 292.968 
L 150.042714 280.728 
L 150.550781 287.928 
L 151.058848 292.968 
L 151.566914 292.968 
L 152.074981 280.728 
L 152.583047 295.488 
L 153.091114 292.968 
L 153.599181 292.968 
L 154.107247 285.768 
L 154.615314 280.728 
L 155.12338 283.968 
L 155.631447 285.768 
L 156.139513 283.608 
L 156.64758 290.808 
L 157.155647 292.968 
L 157.663713 290.448 
L 158.17178 285.408 
L 158.679846 290.448 
L 159.187913 288.288 
L 159.69598 292.968 
L 160.204046 285.408 
L 160.712113 290.448 
L 161.220179 290.808 
L 161.728246 285.768 
L 162.236312 290.808 
L 162.744379 290.808 
L 163.252446 292.968 
L 163.760512 283.968 
L 164.268579 292.968 
L 164.776645 278.208 
L 165.284712 295.488 
L 165.792778 288.288 
L 166.300845 285.408 
L 166.808912 280.728 
L 167.316978 285.768 
L 167.825045 285.768 
L 168.333111 278.568 
L 168.841178 287.928 
L 169.349245 286.128 
L 169.857311 279.288 
L 170.365378 287.928 
L 170.873444 288.288 
L 171.381511 290.448 
L 171.889577 276.408 
L 172.397644 285.768 
L 172.905711 286.488 
L 173.413777 290.808 
L 173.921844 290.448 
L 174.42991 290.448 
L 174.937977 288.648 
L 175.446044 278.928 
L 175.95411 276.048 
L 176.462177 282.888 
L 176.970243 280.368 
L 177.47831 290.448 
L 177.986376 288.288 
L 178.494443 281.088 
L 179.00251 287.928 
L 179.510576 285.408 
L 180.018643 287.928 
L 180.526709 285.768 
L 181.542843 290.448 
L 182.050909 290.808 
L 182.558976 288.288 
L 183.067042 288.288 
L 183.575109 280.728 
L 184.083175 290.808 
L 185.099309 285.408 
L 185.607375 290.808 
L 186.115442 291.168 
L 186.623508 286.128 
L 187.131575 285.768 
L 187.639641 290.808 
L 188.147708 288.648 
L 188.655775 290.808 
L 189.163841 288.288 
L 189.671908 280.368 
L 190.179974 285.768 
L 190.688041 286.488 
L 191.196108 287.928 
L 191.704174 291.168 
L 192.212241 285.768 
L 192.720307 282.888 
L 193.228374 283.968 
L 193.73644 283.608 
L 194.752574 292.968 
L 195.26064 283.248 
L 195.768707 292.968 
L 196.276773 283.248 
L 196.78484 288.288 
L 197.292907 283.968 
L 197.800973 158.688 
L 198.30904 99.288 
L 198.817106 84.888 
L 199.325173 91.728 
L 199.833239 116.928 
L 200.341306 105.408 
L 200.849373 122.328 
L 201.357439 183.528 
L 201.865506 128.088 
L 202.373572 98.928 
L 202.881639 124.488 
L 203.389706 117.288 
L 203.897772 120.888 
L 204.405839 170.568 
L 204.913905 142.848 
L 205.421972 106.488 
L 205.930038 116.928 
L 206.438105 97.848 
L 206.946172 109.008 
L 207.454238 109.728 
L 207.962305 120.528 
L 208.470371 127.728 
L 208.978438 185.688 
L 209.486504 94.968 
L 209.994571 110.088 
L 211.010704 118.728 
L 211.518771 125.208 
L 212.026837 140.328 
L 212.534904 148.968 
L 213.042971 117.648 
L 213.551037 98.568 
L 214.059104 136.728 
L 214.56717 141.048 
L 215.075237 112.248 
L 215.583303 100.008 
L 216.09137 126.648 
L 216.599437 171.288 
L 217.107503 103.968 
L 217.61557 94.608 
L 218.123636 80.208 
L 218.631703 106.488 
L 219.13977 106.848 
L 219.647836 116.928 
L 220.155903 100.008 
L 220.663969 92.808 
L 221.172036 107.208 
L 221.680102 104.328 
L 222.188169 106.488 
L 222.696236 111.528 
L 223.204302 80.208 
L 223.712369 110.088 
L 224.220435 82.368 
L 224.728502 93.528 
L 225.236569 87.408 
L 225.744635 100.008 
L 226.252702 91.728 
L 226.760768 100.728 
L 227.268835 84.528 
L 227.776901 112.968 
L 228.284968 85.608 
L 228.793035 103.608 
L 229.809168 86.688 
L 230.317234 85.248 
L 230.825301 89.928 
L 231.333367 86.328 
L 231.841434 92.088 
L 232.349501 82.368 
L 232.857567 96.408 
L 233.365634 82.368 
L 234.381767 92.448 
L 234.889834 84.888 
L 235.3979 103.968 
L 235.905967 104.688 
L 236.414033 89.928 
L 236.9221 93.528 
L 237.430166 106.848 
L 237.938233 104.328 
L 238.4463 87.768 
L 238.954366 97.128 
L 239.462433 88.128 
L 239.970499 84.528 
L 240.478566 97.848 
L 240.986633 89.928 
L 241.494699 87.408 
L 242.002766 92.088 
L 242.510832 70.488 
L 243.018899 79.488 
L 243.526965 91.728 
L 244.035032 75.528 
L 244.543099 77.688 
L 245.051165 82.728 
L 245.559232 78.048 
L 246.067298 71.928 
L 246.575365 82.728 
L 247.083431 72.288 
L 247.591498 85.248 
L 248.099565 80.928 
L 248.607631 73.368 
L 249.115698 80.208 
L 249.623764 82.728 
L 250.131831 82.728 
L 250.639898 76.968 
L 251.147964 80.928 
L 251.656031 88.488 
L 252.164097 92.808 
L 253.18023 67.968 
L 253.688297 83.088 
L 254.196364 65.808 
L 254.70443 75.528 
L 255.212497 75.168 
L 255.720563 88.128 
L 256.22863 61.128 
L 256.736697 84.888 
L 257.244763 68.328 
L 257.75283 79.848 
L 258.260896 68.328 
L 258.768963 93.528 
L 259.277029 75.528 
L 259.785096 67.968 
L 260.293163 97.488 
L 260.801229 79.128 
L 261.309296 70.848 
L 261.817362 79.488 
L 262.325429 67.248 
L 262.833496 83.808 
L 263.341562 73.008 
L 263.849629 79.488 
L 264.357695 87.768 
L 264.865762 82.728 
L 265.373828 73.368 
L 265.881895 73.368 
L 266.389962 87.768 
L 266.898028 80.568 
L 267.406095 62.928 
L 267.914161 70.128 
L 268.422228 87.048 
L 268.930294 83.088 
L 269.438361 80.928 
L 269.946428 74.808 
L 270.454494 82.728 
L 271.470627 70.848 
L 271.978694 70.848 
L 272.486761 73.368 
L 272.994827 79.848 
L 273.502894 72.288 
L 274.01096 70.128 
L 274.519027 92.808 
L 275.027093 85.248 
L 275.53516 80.568 
L 276.043227 90.288 
L 276.551293 90.288 
L 277.05936 77.328 
L 277.567426 91.728 
L 278.075493 70.128 
L 278.58356 71.928 
L 279.091626 85.608 
L 279.599693 77.688 
L 280.615826 94.968 
L 281.123892 87.048 
L 281.631959 92.088 
L 282.140026 69.768 
L 282.648092 84.528 
L 283.156159 67.968 
L 283.664225 100.008 
L 284.172292 77.688 
L 284.680359 90.288 
L 285.188425 99.648 
L 285.696492 84.528 
L 286.204558 82.728 
L 286.712625 67.608 
L 287.220691 75.528 
L 287.728758 88.128 
L 288.236825 80.928 
L 288.744891 82.368 
L 289.252958 98.928 
L 289.761024 72.288 
L 290.269091 87.408 
L 290.777157 106.488 
L 291.285224 77.688 
L 291.793291 79.488 
L 292.301357 97.128 
L 292.809424 100.008 
L 293.31749 75.528 
L 293.825557 89.568 
L 294.333624 82.728 
L 294.84169 89.208 
L 295.349757 106.128 
L 295.857823 85.608 
L 296.36589 79.848 
L 296.873956 80.928 
L 297.382023 78.048 
L 298.398156 82.728 
L 298.906223 80.928 
L 299.414289 84.888 
L 299.922356 87.768 
L 300.430423 67.608 
L 300.938489 81.648 
L 301.446556 73.368 
L 301.954622 73.368 
L 302.462689 87.408 
L 302.970755 87.048 
L 303.478822 72.288 
L 303.986889 104.328 
L 304.494955 72.648 
L 305.003022 80.568 
L 305.511088 75.528 
L 306.019155 92.088 
L 306.527222 89.568 
L 307.035288 78.048 
L 307.543355 84.888 
L 308.051421 87.048 
L 308.559488 70.128 
L 309.067554 92.808 
L 309.575621 72.648 
L 310.083688 68.328 
L 310.591754 97.848 
L 311.099821 74.808 
L 311.607887 89.568 
L 312.115954 88.488 
L 312.62402 84.888 
L 313.132087 103.608 
L 313.640154 93.168 
L 314.14822 93.888 
L 314.656287 91.008 
L 315.164353 84.888 
L 315.67242 88.488 
L 316.180487 65.808 
L 316.688553 92.088 
L 317.19662 77.688 
L 317.704686 92.088 
L 318.212753 78.408 
L 318.720819 86.688 
L 319.228886 84.528 
L 319.736953 87.048 
L 320.245019 87.048 
L 320.753086 82.368 
L 321.261152 97.128 
L 321.769219 87.768 
L 322.277286 85.968 
L 322.785352 87.048 
L 323.293419 70.848 
L 323.801485 79.848 
L 324.309552 76.968 
L 324.817618 82.728 
L 325.325685 82.728 
L 325.833752 78.048 
L 326.341818 79.128 
L 326.849885 82.008 
L 327.357951 93.168 
L 327.866018 70.128 
L 328.374085 75.168 
L 329.390218 97.488 
L 329.898284 75.888 
L 330.406351 82.368 
L 330.914417 84.888 
L 331.422484 74.808 
L 331.930551 87.768 
L 332.438617 86.688 
L 332.946684 70.488 
L 333.45475 101.448 
L 333.962817 68.328 
L 334.470883 83.088 
L 334.97895 89.928 
L 335.487017 89.568 
L 335.995083 93.888 
L 337.011216 75.888 
L 337.519283 78.048 
L 338.02735 68.328 
L 338.535416 80.208 
L 339.043483 83.088 
L 339.551549 85.248 
L 340.059616 82.368 
L 340.567682 77.688 
L 341.075749 84.528 
L 341.583816 87.768 
L 342.091882 84.888 
L 343.108015 70.848 
L 343.616082 75.168 
L 344.124149 84.168 
L 344.632215 82.368 
L 345.140282 75.168 
L 345.648348 88.128 
L 346.156415 80.568 
L 346.664481 88.488 
L 347.172548 73.008 
L 347.680615 67.608 
L 348.188681 73.368 
L 348.696748 95.328 
L 349.204814 77.688 
L 349.712881 70.128 
L 350.220948 84.528 
L 350.729014 74.808 
L 351.237081 70.128 
L 351.745147 79.488 
L 352.253214 73.728 
L 352.76128 82.728 
L 353.269347 82.368 
L 353.777414 75.528 
L 354.28548 97.848 
L 354.793547 75.888 
L 355.301613 88.488 
L 355.80968 80.208 
L 356.317746 79.848 
L 356.825813 68.328 
L 357.33388 92.808 
L 357.841946 83.808 
L 358.350013 76.968 
L 358.858079 89.568 
L 359.366146 70.848 
L 359.874213 75.888 
L 360.382279 90.288 
L 360.890346 67.968 
L 361.398412 82.368 
L 361.906479 92.088 
L 362.414545 86.328 
L 362.922612 84.888 
L 363.430679 80.928 
L 363.938745 82.368 
L 364.446812 67.608 
L 364.954878 82.368 
L 365.462945 89.928 
L 365.971012 78.768 
L 366.479078 91.368 
L 366.987145 94.608 
L 367.495211 83.088 
L 368.003278 75.528 
L 368.511344 85.248 
L 369.527478 75.888 
L 370.035544 84.528 
L 370.543611 79.848 
L 371.051677 93.528 
L 371.559744 73.008 
L 372.06781 73.368 
L 372.575877 74.808 
L 373.083944 75.168 
L 373.59201 60.408 
L 374.100077 65.808 
L 374.608143 67.968 
L 375.11621 89.208 
L 375.624277 86.688 
L 376.132343 70.488 
L 376.64041 77.688 
L 377.148476 97.848 
L 377.656543 77.328 
L 378.164609 98.568 
L 378.672676 76.608 
L 379.180743 85.608 
L 379.688809 85.248 
L 380.196876 79.848 
L 380.704942 87.408 
L 381.213009 96.768 
L 381.721076 78.048 
L 382.229142 78.048 
L 382.737209 90.648 
L 383.245275 74.808 
L 383.753342 73.008 
L 384.261408 86.328 
L 384.769475 87.768 
L 385.277542 80.208 
L 385.785608 82.728 
L 386.293675 83.088 
L 386.801741 72.648 
L 387.309808 80.208 
L 387.817875 76.968 
L 388.325941 83.088 
L 388.834008 85.248 
L 389.342074 67.968 
L 389.850141 85.608 
L 390.358207 73.008 
L 390.866274 72.648 
L 391.374341 92.448 
L 391.882407 91.728 
L 392.390474 78.048 
L 392.89854 89.568 
L 393.406607 106.848 
L 393.914673 74.808 
L 394.42274 80.208 
L 394.930807 75.528 
L 395.438873 97.128 
L 395.94694 82.008 
L 396.455006 102.888 
L 396.963073 83.088 
L 397.47114 104.328 
L 397.979206 113.328 
L 398.487273 96.768 
L 398.487273 96.768 
" clip-path="url(#pcc83b3593d)" style="fill: none; stroke: #1f77b4; stroke-width: 1.5; stroke-linecap: square"/>
   </g>
   <g id="line2d_18">
    <path d="M 73.832727 53.568 
L 138.86525 53.568 
L 313.132087 168.466601 
L 317.704686 168.48 
L 398.487273 168.48 
L 398.487273 168.48 
" clip-path="url(#pcc83b3593d)" style="fill: none; stroke: #ff7f0e; stroke-width: 1.5; stroke-linecap: square"/>
   </g>
   <g id="patch_3">
    <path d="M 57.6 307.584 
L 57.6 41.472 
" style="fill: none; stroke: #000000; stroke-width: 0.8; stroke-linejoin: miter; stroke-linecap: square"/>
   </g>
   <g id="patch_4">
    <path d="M 414.72 307.584 
L 414.72 41.472 
" style="fill: none; stroke: #000000; stroke-width: 0.8; stroke-linejoin: miter; stroke-linecap: square"/>
   </g>
   <g id="patch_5">
    <path d="M 57.6 307.584 
L 414.72 307.584 
" style="fill: none; stroke: #000000; stroke-width: 0.8; stroke-linejoin: miter; stroke-linecap: square"/>
   </g>
   <g id="patch_6">
    <path d="M 57.6 41.472 
L 414.72 41.472 
" style="fill: none; stroke: #000000; stroke-width: 0.8; stroke-linejoin: miter; stroke-linecap: square"/>
   </g>
  </g>
 </g>
 <defs>
  <clipPath id="pcc83b3593d">
   <rect x="57.6" y="41.472" width="357.12" height="266.112"/>
  </clipPath>
 </defs>
</svg>
